<svg width="28" height="29" viewBox="0 0 28 29" fill="none" xmlns="http://www.w3.org/2000/svg">
<path fill-rule="evenodd" clip-rule="evenodd" d="M14.0198 28.1502C13.3509 28.1688 12.7006 28.113 12.0316 28.0199C10.2293 27.7593 8.53845 27.1823 6.97766 26.233C3.52163 24.1483 1.31051 21.1142 0.400047 17.1309C0.195658 16.2374 0.102753 15.3253 0.102753 14.4132C0.0841726 10.7649 1.27335 7.56336 3.68885 4.84575C5.78849 2.50041 8.38981 1.06715 11.4556 0.471504C12.3104 0.30398 13.1651 0.210911 14.0198 0.248138C14.0198 1.64417 14.0198 3.02159 14.0198 4.41763C13.9826 4.43624 13.9455 4.45486 13.9083 4.49208C13.4066 4.84575 12.9049 5.21802 12.4218 5.60891C11.3256 6.50237 10.2851 7.45168 9.41175 8.58712C8.24116 10.0948 7.46076 11.7515 7.34928 13.7059C7.29354 14.6366 7.40502 15.5487 7.70231 16.4235C8.42697 18.6013 10.6752 20.8536 13.834 20.9095C14.0198 20.9095 14.057 20.9467 14.057 21.1514C14.0384 22.1007 14.0384 23.9993 14.0384 23.9993C14.0384 23.9993 14.0384 24.111 14.0384 24.1669C14.0198 25.4884 14.0198 26.81 14.0198 28.1502Z" fill="white"/>
<path fill-rule="evenodd" clip-rule="evenodd" d="M14.0195 4.39842C14.0195 4.39842 14.0195 1.62496 14.0195 0.228925C14.7813 0.210311 15.5245 0.284766 16.2678 0.396449C17.6613 0.619815 18.9991 1.02932 20.2626 1.6808C22.8825 3.03961 24.945 4.97544 26.3386 7.6186C27.1375 9.14493 27.6578 10.7643 27.8622 12.4582C28.1038 14.4499 27.9179 16.4229 27.3234 18.3401C26.6359 20.518 25.4839 22.4352 23.8673 24.0546C21.8978 26.009 19.5566 27.2748 16.8438 27.8518C15.9147 28.0379 14.9671 28.1496 14.0195 28.131C14.0195 26.7908 14.0195 25.4692 14.0195 24.129C14.0195 24.0732 14.0195 23.9801 14.0195 23.9801C14.0195 23.9801 14.0752 23.9429 14.0938 23.9243C15.5431 22.9005 16.9181 21.7837 18.1073 20.4435C18.8877 19.5687 19.5566 18.638 20.0211 17.5584C20.6714 16.032 20.9316 14.4685 20.5971 12.8119C20.0025 9.79642 17.3083 7.54415 14.2053 7.46969C14.0009 7.46969 14.0195 7.30217 14.0195 7.30217V4.39842Z" fill="white"/>
</svg>
